<svg width="136" height="132" viewBox="0 0 136 132" fill="none" xmlns="http://www.w3.org/2000/svg">
<g clip-path="url(#clip0_1_10398)">
<path d="M0.0210612 60.94C0.0210612 56.3457 0.095506 51.7514 0.0210612 47.1624C-0.0480661 43.9985 2.6798 41.1803 5.8703 41.3132C7.23157 41.3717 8.59284 41.2866 9.95412 41.3132C10.0729 41.3346 10.1947 41.3323 10.3126 41.3064C10.4304 41.2805 10.542 41.2316 10.6408 41.1624C10.7397 41.0932 10.8239 41.0051 10.8886 40.9032C10.9532 40.8013 10.9971 40.6876 11.0176 40.5687C13.2766 34.1631 16.6223 28.1947 20.9081 22.9253C28.1451 13.8989 37.8329 7.15241 48.809 3.49524C52.6334 2.15654 56.6032 1.27653 60.6351 0.873705C63.398 0.561319 66.1764 0.405088 68.9569 0.405764C82.8781 0.719496 95.3264 5.1915 106.179 13.9813C113.977 20.2718 120.068 28.4216 123.892 37.6813C124.312 38.6757 124.7 39.6914 125.051 40.7123C125.091 40.9066 125.203 41.0784 125.365 41.1929C125.527 41.3074 125.727 41.3562 125.923 41.3291C127.348 41.3026 128.773 41.3291 130.177 41.3291C130.945 41.3197 131.708 41.4649 132.419 41.7562C133.13 42.0475 133.775 42.4788 134.316 43.0246C134.856 43.5704 135.282 44.2194 135.567 44.933C135.851 45.6466 135.99 46.4102 135.973 47.1784C135.973 56.367 135.973 65.5556 135.973 74.7442C135.99 75.5124 135.851 76.276 135.567 76.9896C135.282 77.7032 134.856 78.3522 134.316 78.898C133.775 79.4437 133.13 79.8751 132.419 80.1664C131.708 80.4577 130.945 80.6029 130.177 80.5935C128.731 80.5935 127.284 80.5935 125.838 80.5935C125.665 80.5688 125.489 80.6096 125.344 80.708C125.2 80.8063 125.097 80.9551 125.056 81.1252C122.74 87.7355 119.275 93.8847 114.82 99.2897C108.48 107.065 100.299 113.135 91.0192 116.949C82.5099 120.454 73.3128 121.971 64.1287 121.384C52.3136 120.617 40.9817 116.407 31.532 109.273C22.0824 102.14 14.9286 92.395 10.9538 81.2422C10.916 81.0263 10.7953 80.8337 10.6175 80.7056C10.4396 80.5774 10.2188 80.5238 10.002 80.5562C8.5184 80.5934 7.02419 80.5828 5.54061 80.5562C4.09175 80.5209 2.71241 79.9278 1.69008 78.9005C0.667749 77.8732 0.0813007 76.491 0.0529648 75.042C0.0529648 70.3413 0.0529648 65.6407 0.0529648 60.94H0.0210612ZM68.0051 43.286H5.92878C5.40725 43.2555 4.88515 43.3351 4.39643 43.5197C3.90771 43.7043 3.46332 43.9897 3.09217 44.3574C2.72101 44.725 2.43139 45.1667 2.24216 45.6536C2.05293 46.1406 1.96833 46.6619 1.99384 47.1837C1.99384 56.3298 2.03107 65.4758 1.99384 74.6166C1.99244 75.1433 2.09522 75.665 2.29628 76.1518C2.49734 76.6386 2.7927 77.0807 3.16535 77.4529C3.53801 77.8251 3.98061 78.1199 4.46766 78.3203C4.9547 78.5207 5.47657 78.6228 6.00323 78.6207C47.352 78.5958 88.6972 78.5958 130.039 78.6207C130.572 78.6481 131.104 78.5635 131.602 78.3723C132.1 78.1812 132.552 77.8877 132.929 77.5108C133.307 77.1339 133.601 76.6821 133.793 76.1845C133.984 75.6869 134.07 75.1546 134.043 74.6219C134.043 65.5822 134.043 56.4999 134.043 47.4389C134.065 46.8889 133.974 46.3402 133.774 45.8273C133.574 45.3144 133.27 44.8483 132.882 44.4584C132.494 44.0684 132.029 43.7629 131.516 43.5612C131.004 43.3594 130.456 43.2657 129.906 43.286C109.267 43.3108 88.6334 43.3108 68.0051 43.286ZM117.405 41.2813C110.364 22.6222 89.0198 4.34602 60.4702 8.2331C48.2826 9.89748 37.94 15.3639 29.4161 24.2281C24.6975 29.1332 20.9836 34.9137 18.4834 41.2441C18.7758 41.2441 18.9407 41.2972 19.1055 41.2972C24.4655 41.2972 29.8256 41.2972 35.1856 41.2972C35.3839 41.3056 35.5803 41.2563 35.7511 41.1553C35.9219 41.0543 36.0598 40.906 36.1481 40.7283C38.1862 37.4796 40.7236 34.5725 43.667 32.1139C50.1287 26.6112 58.2817 23.4901 66.7661 23.271C70.3009 23.1404 73.8357 23.5291 77.2575 24.4249C86.5808 26.7687 94.6435 32.6129 99.7718 40.7442C99.8814 40.9451 100.048 41.1093 100.25 41.2161C100.453 41.323 100.682 41.3678 100.91 41.3451C106.142 41.3451 111.375 41.3451 116.607 41.3451C116.873 41.3185 117.101 41.2972 117.405 41.2813ZM117.447 80.6307C117.271 80.5956 117.094 80.5707 116.915 80.5562C111.492 80.5562 106.068 80.5562 100.649 80.5562C100.501 80.5735 100.359 80.6201 100.229 80.6931C100.099 80.7661 99.9854 80.8642 99.8941 80.9816C99.4049 81.6197 99.0114 82.3323 98.5222 82.9757C89.945 94.2009 78.6188 99.4014 64.4902 98.3964C60.5484 98.0961 56.6871 97.1231 53.0736 95.5196C46.1435 92.5555 40.2726 87.5633 36.2331 81.1997C36.1185 80.9784 35.9416 80.7955 35.7243 80.6736C35.5069 80.5518 35.2587 80.4961 35.0101 80.5137C29.7564 80.5137 24.5028 80.5137 19.2491 80.5137C19.0417 80.5137 18.8396 80.5137 18.478 80.5509C20.9628 86.883 24.6685 92.6646 29.3842 97.5669C39.3811 107.92 51.6113 113.519 65.9845 114.088C79.7567 114.62 91.987 110.292 102.526 101.385C109.141 95.8091 114.272 88.6826 117.463 80.6413L117.447 80.6307ZM40.1308 41.2494H95.6454L95.7305 41.026C88.5731 31.6885 79.1559 26.7433 67.266 26.8443C61.9317 26.9454 56.6963 28.3024 51.9845 30.8052C47.2727 33.308 43.2171 36.8861 40.1468 41.2494H40.1308ZM95.8421 80.6307H40.301L40.2266 80.8646C48.3304 91.1912 58.8378 96.2056 72.0783 94.7486C81.9901 93.6691 89.8121 88.7664 95.8581 80.6413L95.8421 80.6307ZM12.2885 41.2813C12.8734 41.2813 13.352 41.2494 13.8837 41.2813C14.1105 41.3221 14.3442 41.2726 14.5349 41.1435C14.7257 41.0143 14.8584 40.8157 14.9047 40.59C17.501 33.743 21.4344 27.4814 26.4756 22.1702C36.7862 11.2854 49.463 5.28722 64.4052 4.25031C67.7745 4.07814 71.1521 4.16348 74.5084 4.50556C78.3319 4.87154 82.0983 5.69087 85.7283 6.94628C96.3042 10.4047 105.624 16.9086 112.518 25.6426C116.161 30.1941 119.066 35.2902 121.127 40.7442C121.207 40.9463 121.371 41.276 121.515 41.276C122.217 41.3291 122.924 41.276 123.642 41.276C116.921 20.9791 96.0495 1.7192 67.7339 1.83086C39.5619 1.95848 18.9673 21.2344 12.3045 41.3185L12.2885 41.2813ZM12.2034 80.535C15.8831 90.7339 21.6898 99.2685 29.8947 106.059C43.1459 117.05 58.4177 121.597 75.5028 119.47C90.2375 117.64 102.526 110.935 112.39 99.8428C117.396 94.2011 121.245 87.6322 123.722 80.5084C123.244 80.5385 122.764 80.5385 122.286 80.5084C121.552 80.4073 121.222 80.7051 120.951 81.4017C119.421 85.4827 117.388 89.3571 114.9 92.9353C108.941 101.684 100.652 108.59 90.9713 112.871C84.8011 115.635 78.1754 117.243 71.4243 117.614C68.833 117.714 66.2383 117.684 63.6501 117.523C60.1124 117.32 56.6072 116.733 53.1959 115.774C39.1238 111.971 27.0461 102.915 19.4512 90.4733C17.6242 87.4824 16.0756 84.3301 14.8249 81.0561C14.7452 80.854 14.5325 80.5669 14.3623 80.5562C13.7136 80.535 13.0649 80.5722 12.2194 80.5722L12.2034 80.535Z" fill="#747C50"/>
<path d="M13.9214 93.6318L14.4265 94.5092L8.34332 98.0719L7.81157 97.2052L10.5288 95.578C10.1513 94.924 9.82159 94.3071 9.43341 93.7329C9.3696 93.6318 9.01865 93.6105 8.86976 93.6903C8.10404 94.0944 7.36491 94.5464 6.55665 95.0144L6.0249 94.121L12.1187 90.553L12.6505 91.441C11.9698 91.8398 11.3424 92.2333 10.699 92.5843C10.3214 92.7916 10.2417 92.9884 10.465 93.3819C11.4275 95.0782 11.4168 95.0835 13.0865 94.0891C13.3311 93.9402 13.5917 93.8073 13.9214 93.6318Z" fill="#747C50"/>
<path d="M24.5244 116.21C26.4919 114.732 28.353 113.322 30.2407 111.956C30.3493 111.923 30.4639 111.917 30.5755 111.936C30.6872 111.955 30.7928 112 30.8841 112.067C31.0862 112.211 31.3733 112.535 31.3255 112.695C30.6608 114.96 29.9429 117.209 29.2304 119.475C28.2413 118.996 28.2041 118.98 28.5604 118.087C28.7944 117.497 28.7571 117.082 28.1563 116.789C28.063 116.739 27.9756 116.678 27.8957 116.609C26.8322 115.843 26.8322 115.822 25.7687 116.609C25.1891 117.039 25.003 116.417 24.5244 116.21ZM29.1719 116.162L30.0333 113.503L29.8791 113.418L27.6883 115.12L29.1719 116.162Z" fill="#747C50"/>
<path d="M114.268 109.919C115.023 110.728 115.608 111.36 116.235 112.046L115.475 112.764L110.593 107.59C111.433 106.878 112.188 106.144 113.071 105.511C113.388 105.354 113.753 105.323 114.092 105.426C114.516 105.538 114.905 105.755 115.223 106.056C115.542 106.357 115.78 106.732 115.916 107.149C116.046 107.433 116.084 107.751 116.023 108.058C115.961 108.364 115.805 108.644 115.576 108.856C115.182 109.212 114.746 109.537 114.268 109.919ZM113.778 109.388C114.071 108.994 114.31 108.649 114.576 108.324C114.68 108.231 114.761 108.115 114.813 107.985C114.866 107.856 114.888 107.716 114.878 107.576C114.869 107.437 114.827 107.302 114.757 107.18C114.687 107.059 114.591 106.956 114.475 106.878C114.339 106.761 114.179 106.676 114.006 106.628C113.833 106.58 113.652 106.571 113.475 106.601C113.019 106.894 112.609 107.252 112.258 107.665C112.231 107.665 112.311 107.862 112.38 107.931C112.779 108.361 113.188 108.781 113.778 109.409V109.388Z" fill="#747C50"/>
<path d="M62.1028 128.557L62.9961 129.03C62.6026 130.312 61.8263 130.971 60.7415 130.971C60.1918 130.999 59.6504 130.828 59.2167 130.489C58.783 130.15 58.4861 129.666 58.3806 129.126C58.1647 128.378 58.1172 127.591 58.2413 126.823C58.3654 126.054 58.6581 125.323 59.0984 124.681C59.3913 124.258 59.8142 123.943 60.3027 123.782C60.7912 123.622 61.3187 123.626 61.805 123.793C62.2591 123.927 62.6554 124.21 62.9309 124.595C63.2063 124.98 63.3453 125.446 63.3258 125.92L62.3952 126.111L62.2091 125.627C62.1325 125.404 61.9956 125.207 61.8136 125.057C61.6316 124.907 61.4117 124.811 61.1782 124.778C60.9447 124.746 60.7067 124.778 60.4907 124.873C60.2747 124.967 60.0891 125.12 59.9545 125.313C59.5811 125.85 59.3447 126.47 59.2659 127.118C59.1871 127.767 59.2684 128.425 59.5025 129.036C59.611 129.244 59.7665 129.424 59.9566 129.561C60.1468 129.699 60.3663 129.79 60.5979 129.828C60.9595 129.865 61.3903 129.472 61.7465 129.206C61.9114 129.073 61.9699 128.807 62.1028 128.557Z" fill="#747C50"/>
<path d="M90.8173 121.857L90.0888 122.389V122.219C89.557 122.054 89.0572 121.719 88.5627 121.751C87.6959 121.804 87.2439 122.697 87.4992 123.782C87.6759 124.479 87.9404 125.151 88.2861 125.781C88.4112 126.086 88.6397 126.337 88.9316 126.49C89.2234 126.642 89.5598 126.687 89.8814 126.616C90.5248 126.435 90.8119 125.983 90.8385 125.085C90.8385 125 90.8385 124.915 90.8385 124.835C91.7638 124.59 91.902 124.713 91.902 125.601C91.8821 125.999 91.7582 126.385 91.5426 126.72C91.327 127.056 91.0273 127.329 90.6733 127.512C90.3193 127.696 89.9234 127.783 89.5251 127.766C89.1268 127.749 88.74 127.627 88.4031 127.414C86.9249 126.494 85.9677 123.809 86.5314 122.16C86.6891 121.729 86.9647 121.351 87.3266 121.069C87.6885 120.787 88.1223 120.613 88.5786 120.565C89.0419 120.505 89.5121 120.598 89.9167 120.832C90.3213 121.066 90.6378 121.426 90.8173 121.857Z" fill="#747C50"/>
<path d="M24.5667 110.403L26.247 108.478L27.0021 109.095L22.4131 114.487L21.7431 113.955L22.0462 113.424C21.9824 113.392 21.9345 113.338 21.8866 113.338C20.1904 113.296 19.5576 112.206 20.4403 110.722C20.7845 110.14 21.2271 109.622 21.7484 109.191C23.0139 108.18 24.2317 108.654 24.5667 110.403ZM23.9233 110.632C23.9428 110.465 23.9107 110.295 23.8313 110.147C23.7519 109.999 23.6289 109.878 23.4789 109.802C23.3289 109.725 23.1591 109.697 22.9923 109.719C22.8255 109.742 22.6698 109.816 22.546 109.93C21.9986 110.352 21.5457 110.885 21.2166 111.493C21.1348 111.633 21.0953 111.793 21.1029 111.955C21.1105 112.117 21.165 112.273 21.2596 112.404C21.3543 112.535 21.4851 112.636 21.636 112.694C21.787 112.753 21.9517 112.766 22.11 112.732C22.5691 112.571 22.978 112.292 23.2961 111.923C23.6141 111.555 23.8303 111.11 23.9233 110.632Z" fill="#747C50"/>
<path d="M42.5504 124.771C43.2896 123.803 44.0287 122.835 44.7838 121.857L45.6931 122.25L44.2361 124.08L41.673 127.27C41.521 127.476 41.3143 127.635 41.0765 127.729C40.8387 127.823 40.5793 127.848 40.3277 127.802C39.4982 127.68 39.3759 127.462 39.7322 126.653C39.949 126.705 40.1694 126.741 40.3915 126.76C40.668 126.742 40.9266 126.617 41.1123 126.411C41.298 126.206 41.3962 125.936 41.3859 125.659C41.5189 124.032 41.6677 122.41 41.806 120.788C42.6781 120.894 42.7738 120.985 42.694 121.809C42.6089 122.777 42.4866 123.739 42.375 124.702L42.5504 124.771Z" fill="#747C50"/>
<path d="M119.319 108.633C118.586 108.573 117.893 108.274 117.348 107.78C116.803 107.287 116.436 106.628 116.304 105.905C116.275 105.581 116.327 105.255 116.456 104.957C116.585 104.658 116.787 104.397 117.042 104.196C117.298 103.995 117.6 103.862 117.92 103.807C118.241 103.753 118.57 103.779 118.877 103.884C119.441 104.01 119.958 104.291 120.37 104.695C120.783 105.099 121.074 105.61 121.212 106.171C121.295 106.461 121.309 106.767 121.252 107.064C121.196 107.36 121.071 107.64 120.886 107.879C120.702 108.119 120.465 108.312 120.192 108.442C119.92 108.573 119.621 108.638 119.319 108.633ZM120.27 106.623C120.185 106.176 119.969 105.765 119.65 105.441C119.331 105.118 118.924 104.896 118.478 104.804C118.305 104.766 118.125 104.776 117.958 104.833C117.79 104.891 117.641 104.993 117.528 105.129C117.414 105.265 117.34 105.43 117.314 105.605C117.287 105.78 117.309 105.959 117.378 106.123C117.542 106.513 117.804 106.854 118.14 107.113C118.476 107.371 118.873 107.537 119.292 107.596C119.424 107.614 119.559 107.602 119.686 107.559C119.813 107.517 119.928 107.446 120.023 107.352C120.117 107.257 120.189 107.143 120.232 107.016C120.275 106.89 120.288 106.755 120.27 106.623Z" fill="#747C50"/>
<path d="M110.253 116.13C110.278 116.47 110.212 116.811 110.061 117.117C109.91 117.423 109.679 117.683 109.394 117.87C109.108 118.057 108.778 118.163 108.437 118.179C108.096 118.195 107.757 118.119 107.456 117.959C106.897 117.715 106.421 117.314 106.087 116.804C105.753 116.294 105.574 115.698 105.573 115.088C105.56 114.759 105.631 114.432 105.78 114.138C105.928 113.844 106.149 113.593 106.421 113.408C106.694 113.223 107.009 113.111 107.337 113.082C107.665 113.053 107.995 113.108 108.296 113.243C108.861 113.491 109.344 113.893 109.691 114.404C110.037 114.915 110.232 115.513 110.253 116.13ZM107.509 114.12C107.371 114.112 107.234 114.135 107.107 114.187C106.979 114.239 106.865 114.319 106.773 114.421C106.68 114.523 106.612 114.645 106.573 114.777C106.534 114.909 106.525 115.048 106.546 115.183C106.603 115.585 106.76 115.965 107.004 116.289C107.247 116.613 107.569 116.869 107.94 117.034C108.059 117.093 108.189 117.125 108.322 117.13C108.455 117.135 108.587 117.111 108.71 117.061C108.834 117.01 108.945 116.935 109.036 116.838C109.128 116.742 109.198 116.628 109.242 116.502C109.551 115.604 108.477 114.12 107.509 114.12Z" fill="#747C50"/>
<path d="M82.5593 129.807L81.4001 129.626L81.3363 129.408C81.2255 129.582 81.0991 129.746 80.9588 129.897C80.8311 130.033 80.6762 130.141 80.5042 130.213C80.3321 130.286 80.1468 130.321 79.9602 130.317C79.7736 130.313 79.59 130.27 79.4212 130.19C79.2524 130.11 79.1023 129.996 78.9806 129.855C78.7129 129.537 78.5792 129.129 78.608 128.715C78.6368 128.301 78.8258 127.914 79.1349 127.637C79.4752 127.392 79.9006 127.27 80.2462 127.031C80.4808 126.869 80.665 126.644 80.778 126.382C80.8205 126.276 80.5387 125.893 80.4164 125.898C80.0654 125.898 79.539 125.957 79.406 126.18C79.3252 126.361 79.1787 126.505 78.996 126.582C78.8134 126.659 78.6083 126.663 78.4223 126.595C78.3213 125.866 78.534 125.345 79.1934 125.138C79.7312 124.962 80.3011 124.905 80.8631 124.973C81.0349 125.036 81.1905 125.136 81.3184 125.267C81.4463 125.397 81.5432 125.555 81.6022 125.728C81.8057 126.438 81.9708 127.159 82.0967 127.887C82.2403 128.461 82.3785 129.03 82.5593 129.807ZM80.9641 127.478C80.5982 127.645 80.243 127.835 79.9006 128.047C79.8117 128.106 79.7372 128.185 79.6826 128.277C79.628 128.369 79.5946 128.472 79.585 128.578C79.5753 128.685 79.5895 128.792 79.6266 128.892C79.6638 128.993 79.7229 129.083 79.7996 129.158C79.8639 129.237 79.945 129.3 80.0369 129.344C80.1289 129.388 80.2295 129.411 80.3313 129.411C80.4331 129.411 80.5337 129.388 80.6256 129.344C80.7176 129.3 80.7987 129.237 80.8631 129.158C81.3523 128.647 81.214 128.116 80.9694 127.478H80.9641Z" fill="#747C50"/>
<path d="M92.1675 122.798C92.141 122.4 92.2347 122.003 92.4363 121.658C92.638 121.314 92.9385 121.038 93.2987 120.866C93.659 120.694 94.0626 120.635 94.4572 120.695C94.8518 120.755 95.2194 120.932 95.5122 121.203C95.9933 121.604 96.3493 122.135 96.5378 122.733C96.7263 123.33 96.7394 123.97 96.5757 124.574C96.4712 124.872 96.2966 125.141 96.0666 125.358C95.8367 125.574 95.5581 125.732 95.2543 125.819C94.9505 125.905 94.6304 125.918 94.3209 125.855C94.0113 125.792 93.7215 125.655 93.4756 125.457C93.0893 125.125 92.7742 124.719 92.5494 124.262C92.3246 123.805 92.1946 123.307 92.1675 122.798ZM95.7355 123.809C95.7118 123.428 95.6081 123.056 95.4313 122.718C95.2545 122.38 95.0085 122.083 94.7093 121.846C94.5827 121.747 94.4324 121.683 94.2734 121.66C94.1143 121.636 93.9519 121.655 93.8022 121.713C93.6524 121.772 93.5205 121.868 93.4194 121.993C93.3183 122.118 93.2516 122.267 93.2257 122.426C93.1622 122.886 93.2346 123.355 93.4339 123.774C93.6333 124.194 93.9509 124.546 94.3477 124.787C94.5038 124.853 94.674 124.878 94.8426 124.86C95.0111 124.843 95.1724 124.782 95.3111 124.685C95.4499 124.588 95.5616 124.457 95.6359 124.304C95.7101 124.152 95.7444 123.983 95.7355 123.814V123.809Z" fill="#747C50"/>
<path d="M37.1533 124.191L36.3451 123.373L36.4568 123.234C36.2543 123.27 36.0502 123.294 35.8452 123.309C35.6567 123.342 35.4632 123.333 35.2786 123.282C35.094 123.231 34.9229 123.141 34.7776 123.016C34.6322 122.892 34.5162 122.736 34.4379 122.562C34.3595 122.387 34.3208 122.197 34.3245 122.006C34.3245 121.304 34.8881 120.304 35.8612 120.411C36.2547 120.464 36.6535 120.554 37.0523 120.576C37.3129 120.576 37.6691 120.576 37.818 120.448C37.8821 120.339 37.9159 120.215 37.9159 120.089C37.9159 119.963 37.8821 119.839 37.818 119.73C37.5734 119.528 37.1002 119.294 36.8981 119.4C36.3664 119.688 36.1324 119.369 35.8346 119.092C36.4834 118.257 37.1693 118.167 38.1903 118.762C39.0517 119.267 39.2538 119.799 38.8177 120.73C38.2913 121.868 37.7489 122.958 37.1533 124.191ZM37.3288 121.405C36.9084 121.301 36.4796 121.233 36.0473 121.203C35.9501 121.204 35.8543 121.226 35.7663 121.268C35.6783 121.309 35.6002 121.369 35.5372 121.443C35.4742 121.517 35.4278 121.603 35.4012 121.697C35.3745 121.79 35.3682 121.889 35.3826 121.985C35.3807 122.076 35.3981 122.166 35.4336 122.25C35.4692 122.334 35.5222 122.409 35.589 122.471C35.6559 122.533 35.7351 122.58 35.8214 122.609C35.9078 122.638 35.9992 122.648 36.0898 122.639C36.6907 122.66 37.0257 122.357 37.3288 121.405Z" fill="#747C50"/>
<path d="M12.0655 96.9763C12.3454 96.8686 12.6472 96.8299 12.9453 96.8636C13.2434 96.8973 13.529 97.0023 13.7779 97.1698C14.0267 97.3372 14.2316 97.5623 14.375 97.8257C14.5185 98.0892 14.5963 98.3833 14.6019 98.6832C14.5712 99.0542 14.4046 99.4007 14.134 99.6563C13.6022 100.156 12.9482 100.555 12.3633 101.012C11.9272 101.347 11.5071 101.704 11.0392 102.076C10.7467 101.778 10.3426 101.507 10.8159 100.943C10.6138 100.89 10.4756 100.858 10.3426 100.816C10.0514 100.741 9.78986 100.58 9.59311 100.353C9.39636 100.125 9.27381 99.8435 9.2419 99.5447C9.22467 99.2657 9.29211 98.9879 9.43538 98.7479C9.57865 98.5078 9.79108 98.3166 10.0448 98.1993C10.2827 98.0391 10.5653 97.9585 10.852 97.969C11.1386 97.9795 11.4146 98.0806 11.6401 98.2578C11.8969 98.4772 12.1649 98.6831 12.443 98.8747C12.6717 99.0129 12.9748 99.1884 13.1928 99.1299C13.2983 99.0616 13.384 98.9666 13.4409 98.8545C13.4979 98.7425 13.5242 98.6173 13.5172 98.4918C13.3949 98.194 13.0758 97.758 12.8631 97.7686C12.241 97.8058 12.2303 97.3858 12.0655 96.9763ZM12.3792 99.7467C12.1452 99.5606 11.991 99.4277 11.8475 99.3001C11.717 99.1936 11.5783 99.0975 11.4327 99.0129C11.3452 98.9507 11.2445 98.9094 11.1385 98.8921C11.0325 98.8749 10.9239 98.8822 10.8212 98.9136C10.7185 98.9449 10.6243 98.9994 10.5459 99.0729C10.4676 99.1463 10.4071 99.2368 10.3692 99.3373C10.3195 99.4254 10.2904 99.5237 10.2841 99.6247C10.2778 99.7257 10.2945 99.8268 10.3329 99.9204C10.3712 100.014 10.4303 100.098 10.5057 100.165C10.5811 100.233 10.6707 100.282 10.768 100.31C11.438 100.624 11.8581 100.188 12.3792 99.7467Z" fill="#747C50"/>
<path d="M16.4097 108.877L15.979 107.813L16.1491 107.707L15.7344 107.617C15.5377 107.571 15.3527 107.485 15.1913 107.364C15.0299 107.243 14.8957 107.089 14.7973 106.913C14.6988 106.736 14.6384 106.541 14.6199 106.34C14.6013 106.139 14.6251 105.937 14.6896 105.745C14.7541 105.554 14.858 105.378 14.9944 105.23C15.1309 105.081 15.2971 104.962 15.4821 104.882C15.6672 104.801 15.8671 104.76 16.069 104.761C16.2709 104.762 16.4702 104.806 16.6543 104.889C17.0159 105.064 17.3243 105.346 17.6806 105.522C17.9185 105.659 18.1949 105.715 18.4676 105.681C18.5614 105.61 18.6353 105.516 18.6819 105.408C18.7285 105.3 18.7462 105.181 18.7334 105.064C18.5526 104.767 18.2283 104.346 17.9677 104.352C17.3934 104.352 17.2339 104.097 17.1276 103.66C18.0156 103.129 18.6803 103.315 19.4141 104.261C20.0362 105.064 20.0096 105.58 19.2333 106.314C18.3612 107.133 17.436 107.909 16.4097 108.877ZM17.6965 106.351C17.2658 106.101 16.9361 105.878 16.5852 105.702C16.1172 105.479 15.7982 105.702 15.6121 106.128C15.426 106.553 15.6387 106.867 16.0321 107.042C16.75 107.377 17.1595 106.846 17.6965 106.351Z" fill="#747C50"/>
<path d="M30.6981 120.459L29.8579 119.927L32.6124 115.673L33.3302 116.066L33.1548 116.678C33.2558 116.678 33.3249 116.726 33.3781 116.71C33.6752 116.583 34.007 116.563 34.3172 116.653C34.6274 116.743 34.8968 116.938 35.0797 117.204C35.5317 117.821 35.2924 118.422 34.9361 118.986C34.3299 119.953 33.7025 120.911 33.0431 121.937L32.187 121.405C32.7187 120.618 33.1867 119.879 33.6652 119.135C33.8141 118.901 33.9471 118.656 34.0747 118.417C34.2661 118.055 34.2821 117.646 33.9152 117.46C33.7617 117.386 33.595 117.344 33.425 117.337C33.255 117.33 33.0853 117.357 32.9261 117.417C32.5903 117.637 32.31 117.932 32.1072 118.278C31.634 118.991 31.1979 119.693 30.6981 120.459Z" fill="#747C50"/>
<path d="M96.6985 119.246L97.2302 119.932C97.3153 119.735 97.3791 119.608 97.4216 119.475C97.4981 119.194 97.6599 118.944 97.8847 118.759C98.1096 118.574 98.3863 118.464 98.6766 118.443C98.9338 118.421 99.1915 118.48 99.4136 118.612C99.6357 118.743 99.8112 118.941 99.9155 119.177C100.522 120.294 101.091 121.432 101.708 122.617L100.825 123.107C100.405 122.277 100.001 121.469 99.5912 120.666C99.4875 120.389 99.3344 120.133 99.1392 119.911C98.9318 119.725 98.533 119.501 98.3522 119.587C98.1989 119.661 98.0653 119.771 97.9619 119.907C97.8585 120.043 97.7882 120.2 97.7566 120.368C97.7867 120.828 97.9116 121.277 98.1236 121.687C98.4479 122.421 98.8255 123.128 99.187 123.894L98.3044 124.324C97.5918 122.883 96.8739 121.49 96.2252 120.07C96.1667 119.916 96.4911 119.608 96.6985 119.246Z" fill="#747C50"/>
<path d="M126.519 100.608L125.912 101.438C125.264 100.98 124.652 100.539 124.035 100.108C123.728 99.8471 123.384 99.6321 123.014 99.4703C122.722 99.3746 122.174 99.3852 122.068 99.5553C121.988 99.7198 121.942 99.8986 121.932 100.081C121.922 100.264 121.948 100.447 122.009 100.619C122.192 100.928 122.452 101.185 122.764 101.363C123.44 101.895 124.131 102.352 124.86 102.879L124.328 103.692L120.207 100.752L120.659 100.034L121.292 100.31C121.292 100.018 121.26 99.7787 121.238 99.566C121.153 98.6567 122.201 97.7155 123.142 98.3164C124.248 99.0449 125.338 99.8106 126.519 100.608Z" fill="#747C50"/>
<path d="M44.7783 125.898L45.6875 125.957C45.7992 126.536 45.9906 127.1 46.7085 127.089C46.9584 127.089 47.2083 126.866 47.453 126.749C47.3774 126.51 47.2624 126.285 47.1126 126.084C46.8148 125.792 46.4267 125.585 46.1076 125.308C45.8246 125.08 45.6344 124.756 45.5728 124.398C45.5111 124.04 45.5822 123.672 45.7726 123.362C45.9404 123.062 46.2109 122.833 46.5343 122.716C46.8578 122.6 47.2123 122.605 47.5327 122.729C48.7185 123.059 49.128 123.553 49.011 124.521C48.8001 124.558 48.583 124.526 48.3916 124.431C48.2001 124.335 48.0445 124.18 47.9475 123.989C47.8051 123.846 47.6318 123.738 47.441 123.673C47.2502 123.607 47.0469 123.586 46.8468 123.612C46.4054 123.66 46.4479 124.058 46.7404 124.319C47.1233 124.654 47.5593 124.925 47.9475 125.255C48.1973 125.419 48.3851 125.662 48.4814 125.945C48.5777 126.229 48.5769 126.536 48.4792 126.818C48.3936 127.139 48.2125 127.426 47.9599 127.642C47.7073 127.858 47.3951 127.991 47.0648 128.025C46.7702 128.058 46.4722 128.026 46.1909 127.933C45.9096 127.84 45.6517 127.687 45.4348 127.485C45.2178 127.283 45.0469 127.037 44.9336 126.763C44.8203 126.489 44.7673 126.194 44.7783 125.898Z" fill="#747C50"/>
<path d="M55.4028 126.074C54.9189 126.164 54.5573 126.185 54.2755 125.654C54.1532 125.42 53.6693 125.335 53.3343 125.281C53.196 125.281 52.9514 125.473 52.8823 125.632C52.8131 125.792 52.9674 126.01 53.095 126.106C53.4885 126.388 53.9245 126.611 54.334 126.882C54.6343 127.027 54.8708 127.277 54.9983 127.585C55.1258 127.893 55.1354 128.237 55.0252 128.552C54.9421 128.893 54.7437 129.194 54.4636 129.405C54.1835 129.617 53.839 129.725 53.4885 129.711C52.1325 129.748 51.287 129.036 51.3615 127.86H52.2123C52.3612 128.477 52.7015 128.924 53.4247 128.844C53.5419 128.827 53.6536 128.782 53.7512 128.715C53.8489 128.648 53.93 128.559 53.9883 128.456C53.9927 128.34 53.9695 128.224 53.9205 128.119C53.8715 128.014 53.7981 127.921 53.7065 127.85C53.3236 127.547 52.8663 127.35 52.4782 127.058C52.2053 126.886 52.0048 126.62 51.9146 126.31C51.8245 126.001 51.8509 125.669 51.989 125.377C52.0773 125.068 52.2718 124.8 52.5383 124.62C52.8048 124.44 53.1261 124.36 53.4459 124.393C54.4297 124.436 55.4719 124.984 55.4028 126.074Z" fill="#747C50"/>
<path d="M13.0754 103.049L14.5271 104.894L13.7135 105.58L11.3313 102.592C11.7805 102.381 12.2512 102.218 12.7351 102.108C13.7561 101.991 14.793 101.975 15.9681 101.906L14.7451 100.279L15.5268 99.6885L17.5847 102.283C17.4487 102.484 17.2646 102.648 17.0491 102.76C16.8336 102.871 16.5936 102.927 16.351 102.922C15.3088 102.906 14.2878 102.991 13.0754 103.049Z" fill="#747C50"/>
<path d="M77.6354 126.84L76.8697 127.121C76.6807 126.884 76.4544 126.68 76.1997 126.515C76.0636 126.463 75.9167 126.447 75.7724 126.466C75.6281 126.486 75.491 126.541 75.3736 126.627C75.2562 126.714 75.1623 126.828 75.1004 126.96C75.0385 127.091 75.0105 127.237 75.0192 127.382C75.0312 127.948 75.1043 128.512 75.2372 129.062C75.265 129.277 75.3722 129.472 75.5377 129.611C75.7031 129.75 75.9147 129.822 76.1305 129.812C76.6623 129.812 76.8643 129.466 76.976 129.025C76.976 128.945 77.0239 128.866 77.0398 128.796C77.9491 128.733 78.1033 128.961 77.7843 129.759C77.66 130.027 77.4729 130.262 77.2387 130.443C77.0046 130.623 76.7303 130.745 76.4391 130.797C76.148 130.849 75.8485 130.831 75.5661 130.742C75.2838 130.654 75.0268 130.499 74.8171 130.291C74.4189 129.767 74.155 129.154 74.0484 128.506C73.9418 127.857 73.9958 127.192 74.2056 126.568C74.3748 126.211 74.6523 125.916 74.9988 125.725C75.3453 125.534 75.7432 125.457 76.1359 125.505C76.8963 125.569 77.3323 125.936 77.6354 126.84Z" fill="#747C50"/>
<path d="M122.111 94.9824L123.483 95.8332L124.014 95.2642L124.743 95.7375L124.387 96.4181C125.174 96.9499 125.939 97.4816 126.747 97.8964C126.918 97.9921 127.279 97.7794 127.513 97.7103V97.5242L128.22 97.8964C128.008 99.1301 127.375 99.4438 126.343 98.8535C125.923 98.6089 125.519 98.3218 125.104 98.0666L123.924 97.3115L123.881 97.487C123.602 97.48 123.326 97.4298 123.062 97.3381C122.924 97.2636 122.898 96.9712 122.898 96.7425C122.73 96.6788 122.577 96.5827 122.447 96.4598C122.317 96.3368 122.212 96.1893 122.139 96.0258C122.066 95.8623 122.026 95.686 122.021 95.5069C122.016 95.3279 122.046 95.1496 122.111 94.9824Z" fill="#747C50"/>
<path d="M103.983 120.203C104.169 120.629 104.722 120.873 104.137 121.331C103.552 121.788 103.005 121.82 102.627 121.331C102.159 120.703 101.814 119.991 101.367 119.347C101.128 119.001 101.117 118.369 100.383 118.512C100.299 118.489 100.223 118.446 100.159 118.386C100.096 118.326 100.048 118.252 100.021 118.17C99.9928 118.087 99.9856 117.999 99.9997 117.913C100.014 117.828 100.049 117.747 100.101 117.677C100.142 117.615 100.166 117.543 100.173 117.469C100.179 117.395 100.168 117.321 100.139 117.252C99.6601 116.688 99.9207 116.188 100.304 115.609L101.197 116.997L101.883 116.72L102.324 117.449C101.42 117.821 101.936 118.31 102.202 118.783C102.468 119.257 102.734 119.655 102.973 120.097C103.212 120.538 103.51 120.671 103.983 120.203Z" fill="#747C50"/>
<path d="M70.3239 124.335C70.3664 124.625 70.3877 124.919 70.3877 125.212C70.3452 125.744 70.3877 126.154 71.0843 126.09C71.3077 126.701 71.196 127.073 70.5526 127.058C70.5526 127.999 70.5526 128.908 70.5526 129.812C70.581 129.905 70.6333 129.99 70.7041 130.057C70.7749 130.124 70.862 130.171 70.9567 130.195C71.4512 130.195 71.4034 130.551 71.3821 130.796C71.3821 130.95 71.1216 131.163 70.9461 131.205C70.1166 131.397 69.638 131.024 69.5795 130.142C69.5263 129.381 69.505 128.616 69.4572 127.85C69.4306 127.499 69.5901 127.073 69.0477 126.898C69.0341 126.615 69.0664 126.331 69.1434 126.058C69.1753 125.898 69.3934 125.744 69.3668 125.622C69.2179 124.883 69.7603 124.67 70.3239 124.335Z" fill="#747C50"/>
<path d="M107.546 110.174L108.328 109.558L112.688 115.093L111.938 115.747L107.546 110.174Z" fill="#747C50"/>
<path d="M83.6595 129.376C83.1278 127.089 82.596 124.845 82.0962 122.617C82.9204 122.197 83.0161 122.234 83.2022 123.032C83.617 124.808 84.0371 126.579 84.4412 128.35C84.638 129.222 84.6273 129.227 83.6595 129.376Z" fill="#747C50"/>
<path d="M39.1741 125.106L38.2808 124.659C39.2485 122.495 40.195 120.405 41.1628 118.23L42.0668 118.629L39.1741 125.106Z" fill="#747C50"/>
<path d="M21.8711 108.574C21.3713 107.835 20.9565 107.75 20.2759 108.297C19.5048 108.93 18.7817 109.616 17.9574 110.35L17.3193 109.643L21.0416 106.107L21.6052 106.729L21.366 107.122C21.786 107.319 22.3869 107.399 22.5677 107.713C22.9984 108.441 22.1051 108.255 21.8711 108.574Z" fill="#747C50"/>
<path d="M105.052 115.832C104.132 116.311 103.989 116.625 104.419 117.428C104.887 118.305 105.43 119.14 105.977 120.049L105.159 120.581C104.249 119.145 103.356 117.741 102.436 116.327L103.175 115.838L103.606 116.37C103.686 115.731 103.686 115.067 104.414 115.077C104.643 115.014 104.834 115.535 105.052 115.832Z" fill="#747C50"/>
<path d="M66.543 127.164C65.5274 126.978 65.2722 127.111 65.1339 128.004C65.022 128.867 64.9581 129.735 64.9425 130.605C64.9425 130.982 64.8042 131.136 64.4107 131.136C64.0173 131.136 63.9588 130.94 63.9694 130.605C64.0226 129.312 64.0545 128.02 64.1023 126.723C64.1023 126.452 63.98 126.042 64.4639 126.09C64.7648 126.181 65.0486 126.321 65.3041 126.505C65.5274 126.303 65.8358 125.633 66.4686 126.122C66.6547 126.25 66.5271 126.781 66.543 127.164Z" fill="#747C50"/>
<path d="M118.862 102.283L119.468 101.496L123.462 104.639C123.26 104.91 123.084 105.139 122.861 105.426L118.862 102.283Z" fill="#747C50"/>
<path d="M50.0694 128.871C49.0857 128.669 49.0804 128.669 49.309 127.855C49.644 126.653 49.9844 125.457 50.314 124.255C50.3991 123.936 50.4842 123.724 50.9149 123.846C51.3456 123.968 51.3988 124.128 51.2871 124.516C50.8671 125.952 50.4789 127.398 50.0694 128.871Z" fill="#747C50"/>
<path d="M73.2699 131.056H72.3181C72.1851 129.493 72.0522 127.956 71.9246 126.425C71.882 125.935 72.3127 126.047 72.5573 126.005C72.6637 126.005 72.9349 126.212 72.9455 126.34C73.0466 127.882 73.137 129.424 73.2699 131.056Z" fill="#747C50"/>
<path d="M68.271 126.185V131.168H67.3564V126.132L68.271 126.185Z" fill="#747C50"/>
<path d="M117.293 101.05L117.899 100.268L118.787 100.965L118.176 101.73L117.293 101.05Z" fill="#747C50"/>
<path d="M50.708 122.878L51.0111 121.894C51.9948 121.958 52.0746 122.123 51.6067 123.112C51.4886 123.1 51.3714 123.08 51.2557 123.053C51.0962 123.011 50.9367 122.952 50.708 122.878Z" fill="#747C50"/>
<path d="M71.7544 124.08C72.77 123.989 72.7753 124 72.7807 125.085C72.4723 125.085 71.999 125.207 71.8926 125.085C71.7171 124.824 71.7863 124.394 71.7544 124.08Z" fill="#747C50"/>
<path d="M67.447 125.149V124.202H68.3723C68.5211 125.207 68.3882 125.351 67.447 125.149Z" fill="#747C50"/>
<path d="M13.097 47.9707V50.874C13.097 53.2137 13.097 55.5534 13.097 57.8931C13.097 58.3983 13.2087 58.595 13.7617 58.5897C16.2077 58.5578 18.6538 58.5897 21.0998 58.5897C21.2859 58.5897 21.4774 58.5897 21.7486 58.5578V57.7868C21.7486 54.7452 21.7486 51.7036 21.7486 48.662C21.7486 48.1568 21.8602 47.9601 22.4132 47.976C24.2159 48.0079 26.0238 47.976 27.9168 47.976V48.7098C27.9168 57.2391 27.9168 65.7666 27.9168 74.2923C27.9168 74.9304 27.7733 75.1431 27.1139 75.1218C25.5612 75.0739 24.0085 75.0846 22.4558 75.1218C21.924 75.1218 21.7273 74.9888 21.7326 74.4092C21.7592 71.1337 21.7326 67.8581 21.7592 64.5825C21.7592 63.9817 21.5731 63.8328 21.0041 63.8434C18.6219 63.8682 16.2396 63.8682 13.8574 63.8434C13.2778 63.8434 13.0864 64.0029 13.0917 64.5985C13.1183 67.8528 13.0917 71.1071 13.1183 74.3614C13.1183 74.9888 12.9268 75.143 12.3153 75.1271C10.7679 75.0792 9.20993 75.0899 7.66254 75.1271C7.13079 75.1271 7.00317 74.9623 7.00317 74.4677C7.00317 65.8534 7.00317 57.2408 7.00317 48.6301C7.00317 48.1302 7.16269 47.976 7.66254 47.9813C9.45985 47.992 11.2253 47.9707 13.097 47.9707Z" fill="#747C50"/>
<path d="M55.2697 75.0951H54.5093C52.7439 75.0951 50.9785 75.0951 49.1918 75.0951C48.6866 75.0951 48.5005 74.9303 48.3676 74.4676C47.9581 72.9787 47.4902 71.5005 47.0595 70.0169C47.0496 69.9294 47.0224 69.8447 46.9796 69.7677C46.9367 69.6908 46.8789 69.6231 46.8096 69.5687C46.7404 69.5143 46.661 69.4742 46.5761 69.4507C46.4911 69.4272 46.4024 69.4209 46.315 69.432C43.7414 69.4586 41.173 69.432 38.5994 69.432C38.507 69.4177 38.4128 69.422 38.3222 69.4447C38.2316 69.4673 38.1464 69.5077 38.0716 69.5637C37.9968 69.6197 37.934 69.69 37.8867 69.7705C37.8395 69.8511 37.8088 69.9403 37.7964 70.0329C37.371 71.5218 36.8765 72.9894 36.4511 74.473C36.3235 74.909 36.1533 75.1004 35.6747 75.0898C34.2709 75.0579 32.8671 75.0898 31.4633 75.0898C31.2985 75.0898 31.1336 75.0898 30.873 75.0366C30.9847 74.6325 31.0645 74.2709 31.1761 73.92C33.8739 65.5006 36.5681 57.0812 39.2587 48.6619C39.2742 48.5512 39.3118 48.4447 39.3692 48.3488C39.4266 48.2528 39.5027 48.1694 39.593 48.1035C39.6832 48.0375 39.7858 47.9904 39.8946 47.9648C40.0035 47.9392 40.1163 47.9358 40.2265 47.9547C42.1833 47.9866 44.1331 47.9866 46.0757 47.9547C46.1867 47.935 46.3005 47.9381 46.4103 47.9636C46.5201 47.9891 46.6235 48.0366 46.7144 48.1032C46.8053 48.1697 46.8819 48.254 46.9393 48.351C46.9968 48.4479 47.0341 48.5555 47.0488 48.6672C48.5058 53.4264 50 58.1802 51.4783 62.934C52.6517 66.6988 53.8233 70.4636 54.9932 74.2283C55.1208 74.4836 55.1899 74.7495 55.2697 75.0951ZM42.5981 55.0429H42.3907C41.4389 58.1855 40.4818 61.3282 39.5087 64.5186H45.427L42.5981 55.0429Z" fill="#747C50"/>
<path d="M72.9186 58.4037C72.7165 57.3668 72.6102 56.4522 72.3496 55.5908C72.1445 54.7676 71.6782 54.033 71.0206 53.4972C70.363 52.9613 69.5494 52.6529 68.7018 52.6183C66.6652 52.496 65.0646 53.3095 64.3202 55.1228C63.8167 56.3553 63.4736 57.6474 63.2992 58.9674C62.9888 61.3104 63.0624 63.6884 63.5172 66.0077C63.9107 68.0709 64.8147 69.7299 67.0427 70.3095C69.643 70.9689 71.8285 69.8363 72.7431 67.3158C72.9239 66.8213 73.0036 66.2895 73.1951 65.795C73.2642 65.6089 73.5088 65.3483 73.663 65.3536C75.5241 65.4494 77.3852 65.5929 79.4059 65.7312C79.1825 66.6671 79.039 67.5551 78.7572 68.3899C78.1269 70.3786 76.8999 72.1251 75.2427 73.3923C73.5855 74.6594 71.5784 75.3858 69.4941 75.4728C66.862 75.6589 64.3627 75.2867 62.0921 73.8776C60.7614 73.0676 59.6085 71.9966 58.7028 70.729C57.7971 69.4615 57.1575 68.0237 56.8225 66.5022C55.8441 62.5301 55.892 58.5739 57.4819 54.7612C58.9336 51.2836 61.369 48.7472 65.1603 47.9176C68.8454 47.1147 72.4453 47.3114 75.5667 49.7894C77.3161 51.1719 78.2254 53.1022 78.821 55.2132C79.0496 56.064 79.1932 56.9414 79.4112 57.9624L72.9186 58.4037Z" fill="#747C50"/>
<path d="M99.054 65.332L104.994 65.7096C104.94 66.1722 104.919 66.6029 104.834 67.0176C103.877 71.8938 100.165 75.1109 95.1669 75.4778C92.1146 75.7011 89.3176 75.1268 86.8237 73.2444C84.3524 71.3404 82.7167 68.5513 82.2613 65.4649C81.6169 62.3081 81.7797 59.0398 82.7346 55.9626C84.0852 51.9319 86.5632 48.9329 90.865 47.9438C94.2948 47.1568 97.6767 47.343 100.713 49.3902C102.84 50.8472 103.941 53.0486 104.589 55.4893C104.744 56.0849 104.85 56.6911 104.967 57.292C105.052 57.728 104.967 58.0258 104.435 58.0524C102.611 58.1374 100.793 58.2544 98.9689 58.3661C98.5009 58.3661 98.5063 58.0896 98.4371 57.7546C98.314 56.7941 98.0894 55.8494 97.7671 54.9363C96.5494 52.1978 92.5985 51.7458 90.6842 54.0643C89.7597 55.2901 89.2061 56.7554 89.089 58.2863C88.7467 60.7731 88.7826 63.2973 89.1953 65.7734C89.5091 67.6185 90.1791 69.2723 92.0668 70.0593C94.3533 71.0164 97.145 70.4687 98.3148 67.6557C98.586 66.9645 98.7934 66.1722 99.054 65.332Z" fill="#747C50"/>
<path d="M115.31 65.0236V66.8688C115.31 69.3999 115.31 71.9257 115.31 74.4569C115.31 74.9567 115.161 75.1162 114.656 75.1109C112.768 75.0843 110.875 75.1109 108.939 75.1109V48.0077C109.152 48.0077 109.37 47.9758 109.593 47.9758C113.252 47.9758 116.91 47.9385 120.563 47.9758C121.751 47.9727 122.934 48.121 124.084 48.4171C125.575 48.7704 126.922 49.5709 127.946 50.7113C128.969 51.8517 129.62 53.2776 129.811 54.7981C130.032 55.985 130.011 57.2043 129.75 58.383C129.488 59.5616 128.992 60.6755 128.29 61.6577C127.635 62.6095 126.763 63.3918 125.746 63.9401C124.729 64.4883 123.596 64.7869 122.441 64.8109C120.276 64.9013 118.112 64.9013 115.943 64.9439C115.778 64.9864 115.592 65.0077 115.31 65.0236ZM115.07 56.4199C115.07 57.4834 115.07 58.5044 115.07 59.5413C115.07 60.073 115.262 60.2113 115.741 60.1954C117.24 60.1528 118.75 60.1634 120.25 60.0837C120.714 60.0783 121.172 59.9801 121.598 59.7949C122.023 59.6097 122.407 59.3412 122.727 59.0052C123.047 58.6692 123.297 58.2726 123.462 57.8386C123.626 57.4047 123.702 56.9422 123.685 56.4784C123.708 56.0262 123.641 55.5739 123.488 55.1476C123.335 54.7214 123.099 54.3296 122.794 53.9949C122.489 53.6602 122.121 53.3893 121.711 53.1977C121.301 53.006 120.856 52.8976 120.404 52.8785C118.809 52.7668 117.213 52.7934 115.618 52.7456C115.219 52.7456 115.049 52.8838 115.055 53.2773C115.081 54.3408 115.07 55.383 115.07 56.4199Z" fill="#747C50"/>
<path d="M50.7715 13.9705C52.6432 13.5292 54.4406 13.0399 56.2645 12.6943C57.2163 12.5135 58.1203 13.2686 58.4606 14.2896C58.6688 14.7946 58.6929 15.3568 58.5286 15.8778C58.3644 16.3988 58.0222 16.8455 57.5619 17.1397C57.3864 17.2567 57.2003 17.3524 56.8813 17.5385C58.5935 18.1022 59.5985 19.4263 60.9438 20.527C60.2685 20.7184 59.6942 20.9098 59.1093 21.0587C58.971 21.0906 58.769 20.9311 58.6307 20.8141C57.8597 20.176 57.094 19.5379 56.3442 18.8786C55.5944 18.2192 54.7968 18.1979 53.8609 18.6605C54.18 19.841 54.5044 21.0162 54.8394 22.2552C54.4219 22.4108 53.9912 22.5283 53.5525 22.6061C53.4036 22.6061 53.1218 22.3349 53.0633 22.1382C52.4678 20.1016 51.9094 18.0597 51.3351 16.0177L50.7715 13.9705ZM52.824 14.917C53.0208 15.6455 53.175 16.2996 53.3983 16.927C53.4579 17.0103 53.5385 17.0764 53.6319 17.1184C53.7253 17.1604 53.8282 17.177 53.9301 17.1663C54.6676 16.9819 55.3953 16.7601 56.1102 16.5016C56.2613 16.4671 56.403 16.4 56.5254 16.305C56.6478 16.21 56.7479 16.0893 56.8188 15.9516C56.8897 15.8138 56.9297 15.6622 56.9359 15.5074C56.9421 15.3526 56.9144 15.1983 56.8547 15.0553C56.8267 14.9025 56.7663 14.7574 56.6777 14.6298C56.589 14.5023 56.4742 14.3951 56.3407 14.3155C56.2073 14.236 56.0584 14.1859 55.904 14.1685C55.7496 14.1512 55.5933 14.1671 55.4455 14.2151C54.5947 14.4065 53.7705 14.6565 52.824 14.917Z" fill="#747C50"/>
<path d="M97.8682 20.9102C99.0221 21.9737 100.165 22.9468 101.234 23.9996C101.598 24.3675 101.851 24.8307 101.963 25.336C102.075 25.8413 102.041 26.3679 101.867 26.8551C101.234 28.9023 99.9686 30.4231 97.8203 31.0612C97.4104 31.1841 96.9768 31.2062 96.5566 31.1257C96.1363 31.0451 95.7416 30.8643 95.4062 30.5986C94.2151 29.7159 93.1143 28.7215 91.9338 27.7484L97.8682 20.9102ZM94.1832 27.7644C94.3693 27.9452 94.4809 28.0728 94.6085 28.1791C94.9755 28.4982 95.337 28.8279 95.7305 29.1203C96.592 29.7691 97.3577 29.8169 98.15 29.1203C98.8324 28.4901 99.4505 27.7937 99.9952 27.0412C100.2 26.7911 100.33 26.4883 100.371 26.1675C100.411 25.8467 100.36 25.5211 100.224 25.228C99.7931 24.324 98.9902 23.771 98.1766 23.1754L94.1832 27.7644Z" fill="#747C50"/>
<path d="M94.4225 18.517L93.7791 19.7453C92.5029 19.1072 91.2586 18.5223 90.0569 17.8629C89.5251 17.5705 89.3071 17.6821 89.0625 18.2033C88.451 19.4901 88.4297 19.4848 89.7006 20.1335L92.4923 21.548L91.8808 22.7869C90.695 22.1914 89.557 21.6437 88.4404 21.0428C87.9565 20.7823 87.6906 20.8195 87.4938 21.3672C87.3263 21.7801 87.1216 22.177 86.8823 22.553C86.659 22.9305 86.7281 23.1432 87.1322 23.34C88.2808 23.8717 89.4081 24.4779 90.5407 25.0575C90.7269 25.1479 90.9077 25.2543 91.1576 25.3925L90.5354 26.6102L84.4363 23.5526L88.4988 15.5286L94.4225 18.517Z" fill="#747C50"/>
<path d="M45.7357 26.8069L41.2158 19.0381L46.9055 15.72L47.6287 16.9058C46.2089 17.7406 44.8477 18.5435 43.4066 19.3837L44.4701 21.2608L48.4104 18.9796L49.1282 20.1707L45.2039 22.4838C45.6347 23.2389 46.0441 23.9461 46.4961 24.7331L50.8937 22.202L51.6062 23.3878L45.7357 26.8069Z" fill="#747C50"/>
<path d="M39.8975 22.7177L38.9298 24.0471C38.562 23.8014 38.1246 23.6811 37.6829 23.7041C37.2412 23.7271 36.8187 23.8921 36.4784 24.1747C36.1145 24.4252 35.8429 24.7882 35.7056 25.2081C35.5682 25.628 35.5725 26.0813 35.718 26.4984C35.9333 27.1545 36.2801 27.7598 36.7372 28.2773C37.1944 28.7948 37.7522 29.2136 38.3767 29.5081C38.7479 29.6818 39.165 29.7322 39.5668 29.6518C39.9687 29.5714 40.3343 29.3646 40.6101 29.0615C40.9028 28.81 41.1108 28.4745 41.206 28.1006C41.3011 27.7266 41.2787 27.3325 41.1418 26.9717C41.078 26.7696 41.0195 26.5676 40.9398 26.307L42.434 25.6317C42.7433 26.1541 42.9064 26.7501 42.9064 27.3572C42.9064 27.9644 42.7433 28.5603 42.434 29.0828C42.1325 29.6306 41.7082 30.1011 41.1943 30.4573C40.6804 30.8136 40.091 31.0459 39.4722 31.1361C38.8535 31.2262 38.2222 31.1718 37.6281 30.977C37.0339 30.7822 36.4929 30.4523 36.0477 30.0133C34.7608 28.8009 33.8888 27.4237 34.0909 25.5307C34.3142 23.5047 37.3451 20.846 39.8975 22.7177Z" fill="#747C50"/>
<path d="M76.4604 15.6295L80.1507 16.5122C80.0444 16.9642 79.9433 17.3789 79.8317 17.8469C78.7256 17.5969 77.6675 17.3789 76.6412 17.1184C76.2264 17.012 76.1094 17.1184 76.0137 17.5225C75.8382 18.4158 75.5936 19.2932 75.3969 20.1812C75.3012 20.6066 75.1363 20.8193 74.6577 20.6332C74.3089 20.526 73.9537 20.4408 73.5942 20.378C74.2696 17.4747 74.9396 14.5979 75.6255 11.6414L78.9809 12.3964C79.6615 12.5507 80.3368 12.7368 81.0228 12.8644C81.5545 12.9707 81.5864 13.2366 81.4535 13.6939C81.3206 14.1512 81.3206 14.4224 80.7303 14.2576C79.6668 13.9651 78.6033 13.779 77.5398 13.4972C77.1251 13.3855 76.9443 13.4972 76.8645 13.88C76.7103 14.4437 76.5827 14.9967 76.4604 15.6295Z" fill="#747C50"/>
<path d="M65.9104 20.1709C65.3468 20.2081 64.7619 20.4155 64.4162 20.2188C64.1716 20.0752 64.2195 19.3839 64.177 18.9373C64.0547 17.56 63.9589 16.1881 63.8473 14.8162C63.8154 14.4121 63.7888 14.0133 63.7409 13.6145C63.6346 12.769 63.6292 12.7637 62.7678 12.8009C62.4753 12.8009 62.1776 12.8594 61.8851 12.8966C61.0822 12.9976 60.8216 12.7849 60.9333 11.9713C60.9638 11.8631 61.0212 11.7644 61.1003 11.6844C61.1793 11.6044 61.2774 11.5458 61.3853 11.514C63.5123 11.3439 65.6393 11.2056 67.7237 11.0674C67.7973 11.0811 67.8688 11.1044 67.9364 11.1365L68.1066 12.3808C67.4206 12.434 66.7772 12.5244 66.1285 12.535C65.5967 12.535 65.3681 12.7052 65.4212 13.2795C65.602 15.2203 65.7562 17.1612 65.9051 19.1287C65.9317 19.4371 65.9104 19.7774 65.9104 20.1709Z" fill="#747C50"/>
<path d="M71.6745 20.3515L69.9941 20.2079C70.2228 17.2301 70.4461 14.3108 70.6748 11.3437C71.0042 11.3625 71.3344 11.3625 71.6638 11.3437C72.2647 11.2639 72.3923 11.5457 72.3391 12.0775C72.2328 13.1942 72.169 14.3162 72.0786 15.4381C71.9244 17.0334 71.7914 18.6339 71.6745 20.3515Z" fill="#747C50"/>
<path d="M85.4999 14.3962C84.5374 17.2729 83.5962 20.0699 82.6497 22.9042L81.0544 22.3724L82.8199 17.0549C83.1283 16.1297 83.458 15.2151 83.7504 14.2845C83.8568 13.9442 83.9844 13.8325 84.3406 13.9867C84.6969 14.1409 85.0638 14.2526 85.4999 14.3962Z" fill="#747C50"/>
<path d="M101.878 90.4679L101.255 88.5643C101.198 88.3168 101.114 88.0762 101.005 87.8464C100.293 86.6659 100.803 85.8364 101.83 85.0601C102.074 85.8577 102.319 86.6553 102.553 87.4104C102.787 88.1655 103.085 89.0056 103.26 89.8511C103.419 90.5569 103.826 91.1819 104.409 91.6112C105.084 92.1429 105.722 92.7438 106.419 93.35L105.307 94.6156C104.589 93.9881 103.898 93.4298 103.249 92.8183C102.772 92.3359 102.143 92.0334 101.468 91.9621C100.128 91.8079 98.8094 91.5633 97.597 91.3772C97.4763 91.6606 97.319 91.927 97.129 92.1695C96.5973 92.6215 96.0656 93.0256 95.4753 93.5042C96.2783 94.5198 97.0705 95.4929 97.815 96.4714C98.5594 97.4498 99.3571 98.4335 100.16 99.4598L98.8306 100.523L94.13 94.6156L92.003 96.264L91.1362 95.2005L96.1666 91.223C96.3846 91.0475 96.6983 90.9305 96.8047 90.6913C97.4162 89.5427 98.368 89.8405 99.3145 90.0266C100.123 90.1595 100.92 90.2925 101.878 90.4679Z" fill="#747C50"/>
<path d="M52.5312 101.529C52.5312 103.741 50.9625 106.07 49.0961 106.564C47.2296 107.059 45.8205 106.389 44.5709 105.171C43.3213 103.953 43.2149 102.512 43.7414 100.981C44.2678 99.4494 45.1558 98.0349 46.8787 97.4606C49.1811 96.7109 52.7173 98.6518 52.5312 101.529ZM50.8349 101.768C50.9253 99.7844 49.2928 98.4816 47.7507 98.9017C46.3788 99.2686 45.1664 101.114 45.2196 102.736C45.2136 103.218 45.3577 103.691 45.6321 104.088C45.9064 104.486 46.2974 104.788 46.751 104.953C47.1881 105.163 47.6805 105.231 48.158 105.145C48.6354 105.059 49.0735 104.824 49.4098 104.474C50.1825 103.766 50.6892 102.815 50.8455 101.778L50.8349 101.768Z" fill="#747C50"/>
<path d="M35.6377 97.6466C35.6377 94.924 38.3283 92.3291 40.8861 92.6109C41.5915 92.6786 42.2697 92.9177 42.8617 93.3073C43.4537 93.6969 43.9415 94.2252 44.2827 94.8463C44.624 95.4675 44.8082 96.1626 44.8196 96.8712C44.8309 97.5798 44.6689 98.2804 44.3477 98.9121C43.582 100.38 42.5292 101.571 40.7691 101.901C38.3071 102.353 35.6377 100.146 35.6377 97.6466ZM40.668 94.1476C39.843 94.237 39.0715 94.5996 38.4761 95.1776C37.8807 95.7557 37.4956 96.5161 37.3818 97.3381C37.2858 97.8071 37.3271 98.2939 37.5008 98.74C37.6745 99.1861 37.9732 99.5726 38.361 99.8533C38.7488 100.134 39.2094 100.297 39.6875 100.322C40.1655 100.348 40.6407 100.235 41.0562 99.9969C41.9525 99.4471 42.6451 98.6201 43.029 97.6412C43.1822 97.255 43.2388 96.8372 43.1939 96.4241C43.149 96.011 43.0039 95.6151 42.7713 95.2709C42.5386 94.9266 42.2254 94.6443 41.8589 94.4486C41.4923 94.2528 41.0836 94.1495 40.668 94.1476Z" fill="#747C50"/>
<path d="M53.818 99.7363C55.2377 100.146 56.5671 100.491 57.8699 100.922C58.5063 101.115 59.0642 101.506 59.4615 102.039C59.8587 102.572 60.0744 103.219 60.0767 103.884C60.1636 105.205 59.8623 106.523 59.2099 107.675C58.4176 109.069 57.2105 109.802 55.61 109.505C54.2221 109.249 52.8715 108.819 51.4304 108.441C52.2334 105.522 53.015 102.672 53.818 99.7363ZM53.4457 107.548C54.254 107.739 54.9665 107.936 55.6844 108.079C56.0615 108.175 56.4604 108.129 56.806 107.951C57.1517 107.772 57.4204 107.474 57.5615 107.112C57.8494 106.477 58.0807 105.819 58.2528 105.144C58.7207 103.336 58.1836 102.427 56.3916 101.916C55.0995 101.544 55.0889 101.544 54.7326 102.836C54.3072 104.357 53.8977 105.889 53.4457 107.548Z" fill="#747C50"/>
<path d="M63.5918 108.186L65.187 108.053C65.7932 109.605 66.2506 109.94 67.7022 109.861C67.9769 109.868 68.2463 109.784 68.4679 109.621C68.7957 109.349 69.0223 108.975 69.1113 108.558C69.0667 108.362 68.9791 108.178 68.855 108.02C68.7309 107.862 68.5733 107.733 68.3935 107.643C67.7926 107.34 67.1013 107.229 66.4739 106.979C65.9313 106.801 65.4186 106.543 64.9531 106.213C64.6448 105.965 64.4059 105.642 64.2596 105.275C64.1133 104.907 64.0645 104.508 64.1181 104.116C64.1716 103.724 64.3256 103.353 64.5651 103.038C64.8046 102.724 65.1214 102.476 65.4848 102.32C66.1261 102.029 66.8276 101.895 67.5312 101.928C68.2349 101.961 68.9205 102.161 69.5314 102.512C69.9289 102.717 70.2541 103.039 70.4632 103.435C70.6724 103.83 70.7554 104.28 70.7013 104.724C70.2301 104.748 69.758 104.748 69.2868 104.724C69.1645 104.724 69.0316 104.49 68.9625 104.336C68.5318 103.4 66.7398 103.038 65.99 103.746C65.889 103.836 65.8133 103.951 65.7706 104.08C65.7278 104.208 65.7195 104.346 65.7464 104.479C65.7733 104.611 65.8344 104.735 65.9238 104.837C66.0132 104.938 66.1277 105.015 66.2559 105.059C66.8248 105.33 67.447 105.49 68.0479 105.708C68.5108 105.86 68.9653 106.038 69.4091 106.239C70.5471 106.771 70.9725 107.633 70.8395 108.951C70.784 109.473 70.5688 109.964 70.2232 110.358C69.8777 110.752 69.4187 111.03 68.9093 111.153C67.8382 111.455 66.7 111.42 65.6497 111.052C64.3469 110.6 63.7885 109.595 63.5918 108.186Z" fill="#747C50"/>
<path d="M88.5042 102.347L89.6368 104.687L94.2205 102.502L94.8266 103.746L88.6903 106.702L84.7766 98.6092L90.7322 95.7324L91.3278 96.9821L86.9302 99.1409L87.8714 101.071L91.9712 99.109L92.5827 100.353L88.5042 102.347Z" fill="#747C50"/>
<path d="M80.2725 109.59C80.2048 109.617 80.1356 109.64 80.0652 109.659C78.5922 110.057 78.5763 110.063 77.7893 108.739C77.5074 108.255 77.2256 108.042 76.6247 108.207C75.803 108.415 74.9704 108.579 74.1308 108.696C73.7799 108.755 73.5991 108.909 73.5991 109.27C73.5882 109.398 73.5669 109.524 73.5353 109.648C73.2535 111.073 73.2535 111.073 71.6104 111.243C71.7167 110.579 71.8071 109.94 71.9188 109.302C72.3335 106.989 72.7696 104.681 73.1684 102.39C73.1808 102.212 73.257 102.044 73.3831 101.918C73.5091 101.792 73.6765 101.716 73.8543 101.704C75.0986 101.48 75.0986 101.475 75.7952 102.549L80.0492 109.138C80.113 109.276 80.1821 109.43 80.2725 109.59ZM76.5503 106.803L74.6466 103.708L74.4605 103.767C74.285 104.915 74.1042 106.069 73.9288 107.324L76.5503 106.803Z" fill="#747C50"/>
<path d="M34.1435 90.4891L36.6587 93.1479L35.6803 94.0838L33.0215 91.3984L30.2405 94.0572C29.8363 93.6424 29.4641 93.2542 29.0547 92.8395L35.34 86.7722L39.8226 90.8933L38.8335 91.9142L35.5952 88.9045L34.1435 90.4891Z" fill="#747C50"/>
<path d="M83.0539 108.877C82.6369 109.061 82.2067 109.214 81.767 109.334C81.6394 109.366 81.3682 109.148 81.3097 108.989C80.3207 106.373 79.3582 103.756 78.3479 101.039L84.1014 98.9121L84.5694 100.215L80.4483 101.762C80.7248 102.501 80.9801 103.171 81.2406 103.889L84.8299 102.597L85.2979 103.884L81.7405 105.251C82.1871 106.49 82.6125 107.654 83.0539 108.877Z" fill="#747C50"/>
</g>
<defs>
<clipPath id="clip0_1_10398">
<rect width="136" height="130.858" fill="white" transform="translate(0 0.39502)"/>
</clipPath>
</defs>
</svg>
