<svg width="109" height="56" viewBox="0 0 109 56" fill="none" xmlns="http://www.w3.org/2000/svg">
<path d="M15.3478 2.37039C14.2356 3.57055 13.9917 4.63737 12.822 5.20668C12.5393 5.3443 12.4161 4.7143 12.3427 4.42281C11.8135 2.31482 11.9452 0.652201 11.3603 0.082892C11.2304 -0.0436212 10.6709 -0.0179766 10.5173 0.109391C8.14503 2.07547 10.4278 5.88369 6.97536 1.50617C6.76523 1.23946 5.77701 1.15227 5.80739 1.46428C6.01837 3.62013 9.45647 7.94039 12.3334 8.7935C12.5224 8.84992 12.9444 8.78837 13.4068 8.33788C14.2837 7.48391 16.7546 4.16123 16.028 2.44989C15.9301 2.21908 15.5318 2.17292 15.3487 2.37039H15.3478Z" fill="#1E4A35"/>
<path d="M16.0253 55.9982C15.5443 56.0273 15.1232 55.6802 15.0059 55.2255C14.6582 53.8757 13.6834 50.3522 12.545 48.4357C11.1163 46.0328 11.1163 45.9063 11.1163 45.9063C11.1163 45.9063 5.40127 39.0762 3.45352 32.8788C1.50492 26.6814 -1.22261 17.4066 3.45352 12.052C6.05108 8.59512 8.25876 8.72163 9.42843 8.84814C10.5972 8.97465 11.5061 11.5041 13.9746 9.86025C18.3764 12.3238 11.945 14.0318 8.72967 12.3238C7.14564 11.4827 12.8226 16.5937 16.038 13.1778C16.5578 13.8463 16.6228 15.1704 15.7282 17.8913C14.4252 21.8534 11.8319 28.6415 11.9619 33.4481C12.0918 38.2539 14.2852 40.4123 15.454 44.2069C16.5131 47.6458 18.2811 55.8615 16.027 55.9982H16.0253Z" fill="#1E4A35"/>
<path d="M32.7001 4.97751C33.5196 5.45535 33.9297 6.1298 33.9297 7.00172C33.9297 7.60437 33.7095 8.09674 33.2689 8.48056C32.8276 8.86522 32.29 9.0567 31.6545 9.0567C30.8342 9.0567 30.2401 8.84984 29.8713 8.43354C30.2604 7.89415 30.4553 7.36416 30.4553 6.84529C30.4553 6.38881 30.3524 6.05629 30.1481 5.84857C29.9431 5.6417 29.6258 5.53741 29.1954 5.53741C28.6004 5.53741 28.17 5.79215 27.9042 6.30077C27.6375 6.80939 27.4738 7.43768 27.4122 8.18479C27.3506 8.9319 27.3202 9.99102 27.3202 11.3613H27.9042C28.3143 11.3613 28.9498 11.3459 29.8106 11.3143C30.6714 11.2827 31.1634 11.257 31.2866 11.2365L31.2562 12.2016C31.2351 12.5127 31.133 12.7572 30.949 12.9333C30.7642 13.1103 30.5287 13.1983 30.2418 13.1983H27.321V23.0082C27.321 24.5862 27.5151 25.8941 27.905 26.9318C27.2282 27.5336 26.4704 27.8354 25.6298 27.8354C24.9733 27.8354 24.4306 27.6482 24.0002 27.2746C23.5698 26.9011 23.3546 26.3924 23.3546 25.7488V13.1983H23.0778C22.2575 13.1983 21.6432 13.2291 21.233 13.2915L21.2634 12.3264C21.2837 12.0152 21.3908 11.7767 21.5866 11.61C21.7816 11.4442 22.0221 11.3613 22.309 11.3613H23.3546V10.7381C23.3546 6.41959 25.3226 4.26031 29.2578 4.26031C30.7338 4.26031 31.8815 4.49881 32.701 4.97665L32.7001 4.97751Z" fill="#1E4A35"/>
<path d="M50.4097 25.5624C50.4097 26.1651 50.1532 26.6737 49.6409 27.0883C49.1286 27.5037 48.4417 27.7114 47.5809 27.7114C46.5969 27.7114 45.8281 27.3841 45.2753 26.7301C44.7226 26.0762 44.4036 25.0128 44.3226 23.5382C43.7487 24.8051 42.9495 25.8172 41.9242 26.5745C40.8988 27.3328 39.7106 27.7114 38.3578 27.7114C37.1484 27.7114 36.1746 27.39 35.437 26.7464C34.6994 26.1027 34.3298 25.2 34.3298 24.0366C34.3298 22.7082 34.8319 21.6183 35.8362 20.7669C36.8404 19.9155 38.1114 19.2616 39.649 18.8051C40.9815 18.4315 42.4465 18.2238 44.0458 18.1819V17.4032C44.0458 15.6388 43.8407 14.3412 43.4305 13.5103C43.0204 12.6803 42.3132 12.2649 41.3089 12.2649C40.6524 12.2649 40.1199 12.4572 39.7106 12.841C39.3004 13.2257 39.0954 13.8121 39.0954 14.6002C39.0954 15.7012 39.4641 16.4689 40.2026 16.9048C39.9764 17.1339 39.6743 17.31 39.2954 17.434C38.9156 17.5588 38.5114 17.6212 38.081 17.6212C37.1383 17.6212 36.3948 17.3519 35.8522 16.8117C35.3087 16.2723 35.0378 15.5867 35.0378 14.7567C35.0378 13.5317 35.6218 12.582 36.7906 11.9067C37.9586 11.2322 39.5469 10.8946 41.5562 10.8946C43.8314 10.8946 45.4964 11.4237 46.5522 12.4828C47.6079 13.542 48.1354 15.2653 48.1354 17.6528V23.0715C48.1354 24.1725 48.4738 24.7221 49.1497 24.7221C49.2932 24.7221 49.4468 24.6862 49.6105 24.6136C49.7742 24.5409 49.9076 24.4324 50.0105 24.2862C50.2764 24.6811 50.4106 25.1068 50.4106 25.5633L50.4097 25.5624ZM42.0161 24.3477C42.6314 23.8494 43.1436 23.1698 43.5538 22.3081C43.9639 21.4465 44.169 20.507 44.169 19.4898C42.5495 19.4898 41.3402 19.718 40.541 20.1745C39.9671 20.4651 39.5114 20.8592 39.173 21.3576C38.8346 21.8559 38.6658 22.427 38.6658 23.0706C38.6658 23.6314 38.7932 24.1092 39.0498 24.5033C39.3055 24.8982 39.6903 25.0948 40.2026 25.0948C40.7967 25.0948 41.4018 24.8461 42.0161 24.3477Z" fill="#1E4A35"/>
<path d="M63.4607 11.8444C64.1882 12.4778 64.5519 13.3446 64.5519 14.4448C64.5519 15.2338 64.3165 15.8877 63.8447 16.4066C63.373 16.9255 62.7789 17.1956 62.0615 17.2161C61.2412 17.2161 60.637 16.9981 60.2471 16.5622C60.4724 16.1886 60.626 15.8458 60.7079 15.5347C60.7897 15.2235 60.8311 14.8602 60.8311 14.4448C60.8311 13.9054 60.718 13.4951 60.4927 13.2147C60.2665 12.9343 59.929 12.7941 59.4783 12.7941C58.7196 12.7941 58.1255 13.401 57.6951 14.6157C57.2647 15.8304 57.0495 17.6418 57.0495 20.0498C57.0495 22.2715 57.0799 23.7717 57.1415 24.5496C57.2031 25.3283 57.3871 26.0908 57.6951 26.8388C57.4689 27.0679 57.1618 27.2696 56.7727 27.4457C56.3828 27.6218 55.9322 27.721 55.4199 27.7415C54.7845 27.7415 54.241 27.5338 53.7903 27.1183C53.3388 26.7029 53.1135 26.143 53.1135 25.4369V15.5646C53.1135 14.9833 53.0468 14.5627 52.9135 14.3029C52.7802 14.0439 52.57 13.9139 52.2831 13.9139C51.8932 13.9139 51.6265 14.0387 51.4839 14.2875C51.2375 13.872 51.1151 13.4463 51.1151 13.0104C51.1151 12.3872 51.3252 11.8846 51.7455 11.4999C52.1658 11.1161 52.7548 10.9238 53.5135 10.9238C54.4148 10.9238 55.1321 11.2042 55.6655 11.7649C56.198 12.3257 56.506 13.166 56.5879 14.2875C57.2841 12.0248 58.6268 10.893 60.6159 10.893C61.7839 10.893 62.7324 11.2101 63.4599 11.8427L63.4607 11.8444Z" fill="#1E4A35"/>
<path d="M90.4091 26.9327C89.7331 27.5345 88.9744 27.8363 88.1339 27.8363C87.4571 27.8363 86.9043 27.649 86.4739 27.2755C86.0435 26.9019 85.8283 26.3933 85.8283 25.7496V17.8084C85.8283 16.1688 85.7051 14.9225 85.4595 14.0711C85.2131 13.2197 84.6806 12.794 83.8612 12.794C83.2873 12.794 82.759 13.059 82.278 13.5881C81.7961 14.1173 81.402 14.9225 81.094 16.0013C80.7868 17.0809 80.6222 18.3888 80.602 19.9258L80.6324 23.0091C80.6324 24.6495 80.8172 25.9574 81.186 26.9327C80.5505 27.5345 79.8121 27.8363 78.9724 27.8363C78.3369 27.8363 77.8145 27.649 77.4044 27.2755C76.9942 26.9019 76.7892 26.3933 76.7892 25.7496L76.7588 17.8084C76.7588 16.0645 76.6103 14.7926 76.3132 13.9933C76.0161 13.1941 75.4473 12.794 74.6068 12.794C73.7047 12.794 72.9721 13.4172 72.4084 14.6626C71.8447 15.9081 71.5628 17.7357 71.5628 20.1437C71.5628 22.3859 71.5932 23.8964 71.6548 24.6751C71.7164 25.4539 71.9004 26.2164 72.2084 26.9643C71.6345 27.5456 70.8759 27.8363 69.9332 27.8363C69.2767 27.8363 68.734 27.6285 68.3036 27.2131C67.8732 26.7976 67.658 26.248 67.658 25.5624L67.6276 15.5653C67.6276 14.4652 67.3306 13.9147 66.7356 13.9147C66.5711 13.9147 66.4073 13.9514 66.2436 14.0241C66.0791 14.0967 65.9567 14.2164 65.8748 14.3823C65.6284 13.9882 65.506 13.5625 65.506 13.1052C65.506 12.4615 65.7263 11.9375 66.1668 11.5323C66.6074 11.1271 67.2065 10.9254 67.9652 10.9254C68.8876 10.9254 69.6151 11.2425 70.1484 11.8751C70.6809 12.5085 70.989 13.4479 71.0708 14.6934C71.4599 13.4898 72.0548 12.5555 72.854 11.8905C73.6532 11.2263 74.6785 10.8937 75.9284 10.8937C77.1782 10.8937 78.1268 11.2006 78.834 11.8127C79.5412 12.4256 80.0374 13.3445 80.3252 14.5686C80.7142 13.4274 81.3193 12.529 82.1396 11.8751C82.959 11.2211 83.9633 10.8937 85.1524 10.8937C88.2681 10.8937 89.826 12.9906 89.826 17.1844V23.0082C89.826 24.5862 90.0209 25.8941 90.4099 26.9319L90.4091 26.9327Z" fill="#1E4A35"/>
<path d="M57.4639 32.7052C58.2994 33.1924 58.7171 33.8797 58.7171 34.7679C58.7171 35.3816 58.4926 35.8842 58.0436 36.2749C57.5938 36.6664 57.0461 36.8622 56.3989 36.8622C55.5634 36.8622 54.9575 36.651 54.5819 36.2279C54.9785 35.6782 55.1769 35.1388 55.1769 34.6097C55.1769 34.1447 55.0722 33.8062 54.8638 33.5942C54.6545 33.383 54.3313 33.277 53.8924 33.277C53.2865 33.277 52.8477 33.5361 52.5768 34.0549C52.305 34.5738 52.1379 35.2132 52.0755 35.9749C52.013 36.7365 51.9818 37.8153 51.9818 39.2121H52.5768C52.9945 39.2121 53.6418 39.1958 54.5195 39.1642C55.3963 39.1326 55.8976 39.1061 56.0233 39.0847L55.9921 40.0686C55.971 40.3857 55.8672 40.6345 55.679 40.814C55.4908 40.9944 55.2503 41.0841 54.9583 41.0841H51.9818V51.0804C51.9818 52.6883 52.1801 54.0209 52.5768 55.0792C51.8873 55.6921 51.1143 55.9998 50.2585 55.9998C49.5902 55.9998 49.0366 55.8092 48.5977 55.4288C48.1589 55.0484 47.9395 54.5296 47.9395 53.8739V41.085H47.6576C46.8221 41.085 46.1951 41.1166 45.7782 41.1798L45.8094 40.196C45.8297 39.8788 45.9394 39.636 46.1386 39.4659C46.3369 39.2967 46.5816 39.2121 46.8744 39.2121H47.9395V38.5778C47.9395 34.1772 49.9446 31.9769 53.9549 31.9769C55.4587 31.9769 56.6284 32.2205 57.4639 32.7069V32.7052Z" fill="#1E4A35"/>
<path d="M73.16 51.842C73.16 52.1172 73.0866 52.4344 72.9406 52.7943C72.5439 53.8098 71.8232 54.5979 70.7784 55.1587C69.7337 55.7186 68.4703 55.9998 66.9876 55.9998C64.5647 55.9998 62.6431 55.2433 61.2228 53.7311C59.8025 52.219 59.0928 50.087 59.0928 47.3362C59.0928 44.5854 59.7823 42.5441 61.1604 41.0208C62.5385 39.4975 64.5023 38.7359 67.05 38.7359C68.9092 38.7359 70.4333 39.1539 71.6241 39.9891C72.8148 40.8251 73.4098 42.0039 73.4098 43.5272C73.4098 45.0504 72.7937 46.2677 71.5616 47.1131C70.3286 47.9594 68.6796 48.3825 66.6112 48.3825C65.2744 48.3825 64.2406 48.3406 63.5098 48.256C63.6558 50.0964 64.1208 51.4188 64.904 52.2232C65.6871 53.0276 66.7682 53.4294 68.1463 53.4294C69.2535 53.4294 70.1928 53.2071 70.9658 52.7626C71.738 52.3181 72.3026 51.7266 72.6578 50.9855C72.992 51.1333 73.1591 51.4197 73.1591 51.842H73.16ZM64.3563 41.9244C63.7503 43.0989 63.4474 44.7222 63.4474 46.796V46.8276L64.5124 46.8592C65.807 46.8592 66.888 46.5849 67.7547 46.0343C68.6214 45.4847 69.0552 44.4264 69.0552 42.8613C69.0552 41.0636 68.3345 40.1634 66.8931 40.1634C65.807 40.1634 64.9605 40.7507 64.3554 41.9244H64.3563Z" fill="#1E4A35"/>
<path d="M89.6079 51.842C89.6079 52.1172 89.5345 52.4344 89.3885 52.7943C88.9919 53.8098 88.2712 54.5979 87.2264 55.1587C86.1816 55.7186 84.9183 55.9998 83.4355 55.9998C81.0126 55.9998 79.0911 55.2433 77.6707 53.7311C76.2504 52.219 75.5407 50.087 75.5407 47.3362C75.5407 44.5854 76.2302 42.5441 77.6083 41.0208C78.9864 39.4975 80.9502 38.7359 83.498 38.7359C85.3571 38.7359 86.8812 39.1539 88.072 39.9891C89.2628 40.8251 89.8577 42.0039 89.8577 43.5272C89.8577 45.0504 89.2417 46.2677 88.0095 47.1131C86.7766 47.9594 85.1276 48.3825 83.0591 48.3825C81.7224 48.3825 80.6886 48.3406 79.9578 48.256C80.1038 50.0964 80.5687 51.4188 81.3519 52.2232C82.1351 53.0276 83.2161 53.4294 84.5942 53.4294C85.7014 53.4294 86.6407 53.2071 87.4137 52.7626C88.1859 52.3181 88.7505 51.7266 89.1058 50.9855C89.44 51.1333 89.6071 51.4197 89.6071 51.842H89.6079ZM80.8042 41.9244C80.1983 43.0989 79.8953 44.7222 79.8953 46.796V46.8276L80.9603 46.8592C82.2549 46.8592 83.3359 46.5849 84.2026 46.0343C85.0693 45.4847 85.5031 44.4264 85.5031 42.8613C85.5031 41.0636 84.7824 40.1634 83.341 40.1634C82.2549 40.1634 81.4084 40.7507 80.8034 41.9244H80.8042Z" fill="#1E4A35"/>
<path d="M108.782 53.7141C108.782 54.3278 108.526 54.8356 108.014 55.2374C107.502 55.6391 106.87 55.84 106.118 55.84C105.136 55.84 104.374 55.4801 103.831 54.7612C103.288 54.0423 102.955 53.0157 102.829 51.683C101.889 54.5603 100.134 55.999 97.5653 55.999C95.6437 55.999 94.2335 55.269 93.3356 53.809C92.4377 52.3489 91.9887 50.4034 91.9887 47.9697C91.9887 45.0291 92.5685 42.7544 93.7272 41.1465C94.8867 39.5386 96.5416 38.7351 98.6928 38.7351C99.6531 38.7351 100.463 38.9043 101.121 39.2428C101.779 39.5813 102.253 40.0677 102.546 40.7029V38.989C102.546 36.6835 102.327 34.7576 101.888 33.2129C102.556 32.6 103.329 32.2923 104.206 32.2923C104.874 32.2923 105.428 32.4881 105.867 32.8796C106.306 33.2711 106.525 33.7951 106.525 34.4507L106.494 51.1436C106.494 52.2438 106.849 52.7934 107.559 52.7934C107.956 52.7934 108.227 52.6669 108.373 52.4122C108.644 52.8353 108.781 53.2687 108.781 53.7132L108.782 53.7141ZM101.513 51.2864C102.139 49.6468 102.453 47.6739 102.453 45.3676C102.453 43.9717 102.265 42.8604 101.89 42.0355C101.514 41.2106 100.782 40.7977 99.6962 40.7977C98.5265 40.7977 97.675 41.3961 97.1425 42.5912C96.61 43.7871 96.3433 45.548 96.3433 47.8748C96.3433 49.8853 96.5205 51.3659 96.8758 52.3173C97.2311 53.2696 97.8573 53.7457 98.7552 53.7457C99.9662 53.7457 100.886 52.9259 101.512 51.2864H101.513Z" fill="#1E4A35"/>
<path d="M41.6779 54.2494V53.6886C41.6779 52.7236 40.9056 51.9413 39.953 51.9413H23.1397C22.187 51.9413 21.4147 52.7236 21.4147 53.6886V54.2494C21.4147 55.2143 22.187 55.9966 23.1397 55.9966H39.953C40.9056 55.9966 41.6779 55.2143 41.6779 54.2494Z" fill="#1E4A35"/>
<path d="M27.8146 35.1731C28.5261 35.1492 28.9286 35.1295 29.0223 35.1142L28.9986 35.8502C28.9826 36.0878 28.905 36.2741 28.764 36.4084C28.6231 36.5434 28.4433 36.6101 28.2248 36.6101H26.1378V44.1393C26.1378 44.9788 26.4973 45.3985 27.2163 45.3985C27.4036 45.3985 27.5952 45.3711 27.791 45.3156C27.9859 45.26 28.1075 45.1771 28.1547 45.066C28.3581 45.3352 28.4594 45.6601 28.4594 46.0396C28.4594 46.5303 28.2324 46.9269 27.7792 47.2269C27.3252 47.5278 26.7243 47.6783 25.9732 47.6783C25.066 47.6783 24.363 47.3859 23.8626 46.7995C23.3621 46.214 23.1123 45.4139 23.1123 44.4009V36.6101H22.7841C22.1427 36.6101 21.6735 36.634 21.3773 36.681L21.4009 35.945C21.4161 35.7074 21.4979 35.5253 21.6473 35.3988C21.7958 35.2723 21.979 35.209 22.1984 35.209H23.1132V33.6174C23.1132 33.1267 23.2769 32.7386 23.6052 32.4531C23.9335 32.1685 24.3554 32.0257 24.8711 32.0257C25.2466 32.0257 25.5825 32.0966 25.8795 32.2394C26.1766 32.3822 26.4112 32.5403 26.5834 32.7147C26.38 33.5225 26.2466 34.3534 26.185 35.209H26.2551C26.5834 35.209 27.1032 35.1971 27.8146 35.1731Z" fill="#1E4A35"/>
<path d="M31.8591 46.0755C30.8431 44.9437 30.335 43.364 30.335 41.3373C30.335 39.3105 30.8388 37.7034 31.8473 36.5631C32.8558 35.4228 34.266 34.8526 36.0795 34.8526C37.8931 34.8526 39.2805 35.4228 40.289 36.5631C41.2975 37.7034 41.8013 39.2942 41.8013 41.3373C41.8013 43.3803 41.2975 44.9437 40.289 46.0755C39.2805 47.2082 37.8771 47.774 36.0795 47.774C34.282 47.774 32.8744 47.2082 31.8583 46.0755H31.8591ZM38.5421 41.3373C38.5421 37.7265 37.721 35.922 36.0795 35.922C35.2356 35.922 34.6103 36.3733 34.2035 37.276C33.7968 38.1787 33.5942 39.5327 33.5942 41.3373C33.5942 43.1418 33.7976 44.4685 34.2035 45.3635C34.6103 46.2584 35.2356 46.7055 36.0795 46.7055C37.721 46.7055 38.5421 44.9164 38.5421 41.3373Z" fill="#1E4A35"/>
</svg>